<?xml version="1.0" encoding="utf-8"?>
<svg version="1.1" xmlns="http://www.w3.org/2000/svg" xmlns:xlink="http://www.w3.org/1999/xlink" height="15" width="17.5">
  <defs>
    <path id="path-0" opacity="1" fill-rule="evenodd" d="M13.678955078125,0 C13.1490478515625,0 12.715576171875,0.4576263427734375 12.715576171875,1.0169525146484375 L12.6995849609375,1.0169525146484375 L12.6995849609375,3.0677947998046875 L10.7889404296875,3.0677947998046875 C10.2591552734375,3.0677947998046875 9.82568359375,3.525421142578125 9.82568359375,4.084747314453125 C9.82568359375,4.644065856933594 10.2591552734375,5.101692199707031 10.7889404296875,5.101692199707031 L12.6995849609375,5.101692199707031 L12.6995849609375,7.084747314453125 C12.6995849609375,7.644065856933594 13.133056640625,8.101692199707031 13.662841796875,8.101692199707031 C14.192626953125,8.101692199707031 14.6260986328125,7.644065856933594 14.6260986328125,7.084747314453125 L14.6260986328125,5.118644714355469 L16.5367431640625,5.118644714355469 C17.0665283203125,5.118644714355469 17.5,4.661018371582031 17.5,4.101692199707031 C17.5,3.5423736572265625 17.0665283203125,3.084747314453125 16.5367431640625,3.084747314453125 L14.6422119140625,3.084747314453125 L14.6422119140625,1.0169525146484375 C14.6422119140625,0.4576263427734375 14.208740234375,0 13.678955078125,0 L13.678955078125,0ZM0,4.61016845703125 C0,3.9661026000976562 0.481689453125,3.4576263427734375 1.091796875,3.4576263427734375 L6.5504150390625,3.4576263427734375 C7.1605224609375,3.4576263427734375 7.6422119140625,3.9661026000976562 7.6422119140625,4.61016845703125 C7.6422119140625,5.254234313964844 7.1605224609375,5.7627105712890625 6.5504150390625,5.7627105712890625 L1.091796875,5.7627105712890625 C0.481689453125,5.7627105712890625 0,5.254234313964844 0,4.61016845703125 L0,4.61016845703125ZM2.1834716796875,9.237289428710938 C2.1834716796875,8.593223571777344 2.6651611328125,8.084747314453125 3.2752685546875,8.084747314453125 L10.9334716796875,8.084747314453125 C11.5435791015625,8.084747314453125 12.0252685546875,8.593223571777344 12.0252685546875,9.237289428710938 C12.0252685546875,9.881355285644531 11.5435791015625,10.38983154296875 10.9334716796875,10.38983154296875 L3.2752685546875,10.38983154296875 C2.68115234375,10.38983154296875 2.1834716796875,9.864410400390625 2.1834716796875,9.237289428710938 L2.1834716796875,9.237289428710938ZM4.366943359375,13.847457885742188 C4.366943359375,13.203392028808594 4.8486328125,12.694915771484375 5.458740234375,12.694915771484375 L14.208740234375,12.694915771484375 C14.8187255859375,12.694915771484375 15.3004150390625,13.203392028808594 15.3004150390625,13.847457885742188 C15.3004150390625,14.491523742675781 14.8187255859375,15 14.208740234375,15 L5.458740234375,15 C4.8486328125,15 4.366943359375,14.491523742675781 4.366943359375,13.847457885742188 L4.366943359375,13.847457885742188Z"/>
  </defs>
  <g opacity="1">
    <g opacity="1">
      <use xlink:href="#path-0" fill="rgb(255,255,255)" fill-opacity="1"/>
    </g>
  </g>
</svg>